<?xml version="1.0" encoding="UTF-8"?><svg id="Layer_2" xmlns="http://www.w3.org/2000/svg" viewBox="0 0 885.22 161.8"><defs><style>.cls-1,.cls-2,.cls-3{stroke-width:0px;}.cls-2{fill:#f55036;}.cls-3{fill:#666;}</style></defs><g id="Layer_1-2"><path class="cls-2" d="M30.23,56.35c0,8.22-5.96,13.19-15.78,13.19H4.08v12.19H0v-38.62h14.46c9.82,0,15.78,4.97,15.78,13.24ZM26.15,56.35c0-6.18-4.08-9.71-11.81-9.71H4.08v19.31h10.26c7.72,0,11.81-3.53,11.81-9.6Z"/><path class="cls-2" d="M40.32,62.42c0-11.26,8.61-19.64,20.3-19.64s20.25,8.33,20.25,19.64-8.66,19.64-20.25,19.64-20.3-8.39-20.3-19.64ZM76.79,62.42c0-9.21-6.9-16-16.17-16s-16.28,6.79-16.28,16,6.95,16,16.28,16,16.17-6.79,16.17-16Z"/><path class="cls-2" d="M146.03,43.11l-13.02,38.62h-4.3l-11.31-32.94-11.37,32.94h-4.25l-13.02-38.62h4.19l11.15,33.21,11.53-33.21h3.81l11.37,33.38,11.31-33.38h3.92Z"/><path class="cls-2" d="M184.91,78.2v3.53h-27.31v-38.62h26.48v3.53h-22.4v13.74h19.97v3.48h-19.97v14.35h23.23Z"/><path class="cls-2" d="M225.02,81.73l-8.83-12.41c-.99.11-1.99.17-3.09.17h-10.37v12.25h-4.08v-38.62h14.45c9.82,0,15.78,4.97,15.78,13.24,0,6.07-3.2,10.32-8.83,12.14l9.43,13.24h-4.47ZM224.8,56.35c0-6.18-4.08-9.71-11.81-9.71h-10.26v19.37h10.26c7.72,0,11.81-3.59,11.81-9.65Z"/><path class="cls-2" d="M269.98,78.2v3.53h-27.31v-38.62h26.48v3.53h-22.4v13.74h19.97v3.48h-19.97v14.35h23.23Z"/><path class="cls-2" d="M283.71,43.11h15.72c12.36,0,20.69,7.94,20.69,19.31s-8.33,19.31-20.69,19.31h-15.72v-38.62ZM299.21,78.2c10.26,0,16.88-6.51,16.88-15.78s-6.62-15.78-16.88-15.78h-11.42v31.56h11.42Z"/><path class="cls-2" d="M384.28,71.41c0,6.57-4.86,10.32-14.51,10.32h-17.77v-38.62h16.66c8.61,0,13.57,3.64,13.57,9.93,0,4.41-2.37,7.34-5.9,8.77,4.97,1.1,7.94,4.36,7.94,9.6ZM356.08,46.47v14.01h12.3c6.18,0,9.77-2.37,9.77-7.01s-3.59-7.01-9.77-7.01h-12.3ZM380.19,71.08c0-5.02-3.7-7.23-10.48-7.23h-13.63v14.51h13.63c6.79,0,10.48-2.21,10.48-7.28Z"/><path class="cls-2" d="M410.15,68.38v13.35h-4.03v-13.35l-15.45-25.27h4.36l13.24,21.68,13.24-21.68h4.08l-15.45,25.27Z"/><path class="cls-3" d="M699.39,10.28c-28.65,0-51.96,23.31-51.96,51.96s23.31,51.96,51.96,51.96,51.96-23.31,51.96-51.96-23.31-51.96-51.96-51.96ZM699.39,94.72c-17.91,0-32.48-14.57-32.48-32.48s14.57-32.48,32.48-32.48,32.48,14.57,32.48,32.48-14.57,32.48-32.48,32.48Z"/><path class="cls-3" d="M627.64,10.48c-1.78-.2-3.56-.32-5.34-.32-.89,0-1.74.02-2.61.04-.87.03-1.74.1-2.61.15-3.47.28-6.95.86-10.35,1.79-6.81,1.84-13.38,5.04-19.05,9.58-5.68,4.51-10.38,10.45-13.48,17.13-1.55,3.34-2.71,6.86-3.41,10.43-.35,1.79-.62,3.58-.78,5.38-.06.9-.16,1.8-.17,2.69l-.03,1.34v.67s-.01.56-.01.56l.04,17.4.04,17.4.12,17.4h19.49l.12-17.4.04-17.4.04-17.4v-.53s.02-.42.02-.42l.02-.83c0-.56.08-1.1.11-1.65.1-1.09.27-2.16.48-3.22.44-2.11,1.1-4.15,1.98-6.07,1.77-3.84,4.42-7.28,7.82-10,3.38-2.72,7.43-4.76,11.81-5.97,2.19-.61,4.46-1,6.77-1.19.58-.03,1.16-.09,1.74-.11.58,0,1.17-.04,1.74-.03,1.12,0,2.23.07,3.34.18,4.43.44,8.74,1.81,12.63,4l9.73-16.89c-6.17-3.6-13.12-5.9-20.22-6.71Z"/><path class="cls-3" d="M503.23,10.02c-28.65,0-51.96,23.31-51.96,51.96s23.31,51.96,51.96,51.96h17.09v-19.49h-17.09c-17.91,0-32.48-14.57-32.48-32.48s14.57-32.48,32.48-32.48,32.55,14.57,32.55,32.48h0v47.86h0c0,17.79-14.49,32.28-32.23,32.47-8.54-.09-16.55-3.46-22.6-9.5l-13.78,13.78c9.65,9.65,22.42,15.03,36.03,15.21h0c.12,0,.23,0,.35,0,.12,0,.24,0,.36,0h0c28.25-.39,51.12-23.42,51.25-51.73l.02-49.37c-.68-28.07-23.72-50.69-51.95-50.69Z"/><path class="cls-3" d="M814.12,10.28c-28.65,0-51.96,23.31-51.96,51.96s23.31,51.96,51.96,51.96h17.78v-19.49h-17.78c-17.91,0-32.48-14.57-32.48-32.48s14.57-32.48,32.48-32.48c16.96,0,30.91,13.07,32.35,29.66h-.03v99.78h19.49V62.24h0c0-28.65-23.15-51.96-51.8-51.96Z"/><path class="cls-1" d="M885.22,9.46c0,5.37-4.18,9.57-9.54,9.57s-9.49-4.21-9.49-9.52,4.13-9.52,9.54-9.52,9.49,4.1,9.49,9.46ZM884.2,9.46c0-4.8-3.61-8.47-8.47-8.47s-8.55,3.75-8.55,8.52,3.67,8.52,8.49,8.52,8.52-3.77,8.52-8.57ZM878.08,11.08l2.53,3.88h-1.46l-2.35-3.64c-.22.03-.4.03-.62.03h-2.8v3.61h-1.4V4.07h4.21c2.67,0,4.31,1.4,4.31,3.61,0,1.67-.89,2.86-2.43,3.4ZM879.13,7.68c0-1.54-1.11-2.43-3.02-2.43h-2.75v4.91h2.75c1.91,0,3.02-.92,3.02-2.48Z"/></g></svg>